<svg xmlns="http://www.w3.org/2000/svg" fill="none" viewBox="0 0 128 128">
    <path d="M38.0544 112.337C33.6258 112.337 30.2808 111.395 28.0194 109.511C25.8522 107.626 24.7686 104.705 24.7686 100.748C24.7686 96.6959 25.8522 93.7278 28.0194 91.8433C30.2808 89.9588 33.6258 89.0165 38.0544 89.0165C42.5773 89.0165 45.9223 89.9588 48.0895 91.8433C50.3509 93.7278 51.4816 96.6959 51.4816 100.748C51.4816 108.474 47.0059 112.337 38.0544 112.337ZM64.8701 110.5V63.0103H53.139V48.0284L72.9264 48.8764V46.191C69.6285 45.4372 66.896 44.2594 64.7288 42.6575C62.6558 40.9615 61.1482 38.9356 60.2059 36.58C59.2637 34.2243 58.7926 31.7273 58.7926 29.089C58.7926 25.0373 59.829 21.551 61.902 18.63C63.975 15.6148 66.896 13.3062 70.665 11.7044C74.434 10.0083 78.8626 9.1603 83.9508 9.1603C88.2852 9.1603 92.1956 9.72566 95.6819 10.8564C99.2625 11.8928 102.136 13.212 104.304 14.8138L103.032 33.1878C100.77 31.586 98.226 30.2668 95.3992 29.2304C92.5725 28.1939 89.887 27.6756 87.3429 27.6756C84.5162 27.6756 82.1605 28.4294 80.276 29.9371C78.4857 31.4447 77.5906 33.8945 77.5906 37.2867C77.5906 39.6423 78.0617 41.5268 79.004 42.9402C80.0404 44.2594 81.2654 45.2487 82.6788 45.9083C84.1864 46.4737 85.6469 46.8506 87.0603 47.039H104.021V63.0103H84.6575V110.5H64.8701Z" />
    <style>
        path { fill: #202020; }
        @media (prefers-color-scheme: dark) {
            path { fill: #FFF; }
        }
    </style>
</svg>
